{"title":"Wel.The.Rileys.2010.BDRip.XVID.AC3.HQ.Hive-CM8","uid":6094455,"size":1825762004,"categoryP":"video","categoryS":"movies","magnet":"?xt=urn:btih:1f0aa4d79df7cc1c68281fa27b158e9f68fd6cf3&amp;dn=Wel.The.Rileys.2010.BDRip.XVID.AC3.HQ.Hive-CM8&amp;tr=udp%3A%2F%2Ftracker.openbittorrent.com%3A80&amp;tr=udp%3A%2F%2Fopen.demonii.com%3A1337&amp;tr=udp%3A%2F%2Ftracker.coppersurfer.tk%3A6969&amp;tr=udp%3A%2F%2Fexodus.desync.com%3A6969","seeders":0,"leechers":1,"uploader":"TvTeam","files":5,"time":1294703871,"description":". \n  &lt;a href=&quot;\nhttp://www.torrentday.com/&quot; rel=&quot;nofollow&quot; target=&quot;_NEW&quot;&gt;\nhttp://www.torrentday.com/&lt;/a&gt;        :     The Hottest Private Tracker On The Net!!! &lt;a href=&quot;\nhttp://www.torrentday.com&quot; rel=&quot;nofollow&quot; target=&quot;_NEW&quot;&gt;\nhttp://www.torrentday.com&lt;/a&gt;          :     Once you visit it, You can't stop yourself visiting Torrentday everyday ;)\n\n\n               www . TorrentDay . Com \n\n(((((((((((((= Enjoy No RAR releases =))))))))))))))))))))\n\n\n...................................NFO:....................................\n\n.[img]http://img249.imageshack.us/img249/6853/welcometotherileysblura.jpg[/img]\n\nWelcome To The Rileys 2010 BDRip XVID AC3 HQ Hive-CM8\n\n\n\n[b]Thx Hive\n\nCM8 Doing It Right The First Time :D\n\nWhy download a touched up rip of a rip BRrip\nGet the real deal BDRip\n\nEnjoy\n\n\nSource China BD\n\nVideo: 720x384 @bitrate 1730 2pass\nAudio: DTS to AC3 5.1 @448\nSample: yes included[/b]\n &lt;a href=&quot;\nhttp://www.imdb.com/title/tt1183923/&quot; rel=&quot;nofollow&quot; target=&quot;_NEW&quot;&gt;\nhttp://www.imdb.com/title/tt1183923/&lt;/a&gt;\n\n\nGeneral\nComplete name                    :Format                           : AVI\nFormat/Info                      : Audio Video Interleave\nFile size                        : 1.69 GiB\nDuration                         : 1h 50mn\nOverall bit rate                 : 2 189 Kbps\nWriting application              : Nandub v1.0rc2\nWriting library                  : Nandub build 1853/release\n\nVideo\nID                               : 0\nFormat                           : MPEG-4 Visual\nFormat profile                   : Advanced Simple@L5\nFormat settings, BVOP            : Yes\nFormat settings, QPel            : Yes\nFormat settings, GMC             : No warppoints\nFormat settings, Matrix          : Default (H.263)\nMuxing mode                      : Packed bitstream\nCodec ID                         : XVID\nCodec ID/Hint                    : XviD\nDuration                         : 1h 50mn\nBit rate                         : 1 732 Kbps\nWidth                            : 720 pixels\nHeight                           : 384 pixels\nDisplay aspect ratio             : 1.850\nFrame rate                       : 23.976 fps\nColor space                      : YUV\nChroma subsampling               : 4:2:0\nBit depth                        : 8 bits\nScan type                        : Progressive\nBits/(Pixel*Frame)               : 0.261\nStream size                      : 1.34 GiB (79%)\nWriting library                  : XviD 1.2.1 (UTC 2008-12-04)\n\nAudio\nID                               : 1\nFormat                           : AC-3\nFormat/Info                      : Audio Coding 3\nMode extension                   : CM (complete main)\nCodec ID                         : 2000\nDuration                         : 1h 50mn\nBit rate mode                    : Constant\nBit rate                         : 448 Kbps\nChannel(s)                       : 6 channels\nChannel positions                : Front: L C R, Side: L R, LFE\nSampling rate                    : 48.0 KHz\nBit depth                        : 16 bits\nStream size                      : 355 MiB (20%)\nAlignment                        : Split accross interleaves\nInterleave, duration             : 42 ms (1.00 video frame)\nInterleave, preload duration     : 500 ms\n\n\n\nJames Gandolfini ... Doug Riley\nKristen Stewart ... Mallory\nMelissa Leo ... Lois Riley\nJoe Chrest ... Jerry\nAlly Sheedy ... Harriet\nTiffany Coty ... Tara\nEisa Davis ... Vivian\nLance E. Nichols ... Hamilton 'Ham' Watkins\nPeggy Walton-Walker ... Brenda\nSharon Landry ... Sharon\nKathy Lamkin ... Charlene\nKerry Cahill ... Waitress\nKen Hixon ... Danny\nElliott Grey ... Randy\nDavid Jensen ... Ed \n\n\n\nOn a business trip to New Orleans, a damaged man seeks salvation by\ncaring for a wayward young woman  \n\n\n\n[img]http://img534.imageshack.us/img534/9062/welq.png[/img]\n[img]http://img689.imageshack.us/img689/8608/wewewee.png[/img]\n[img]http://img713.imageshack.us/img713/5933/wewewewem.png[/img]\n[img]http://img829.imageshack.us/img829/4264/wewewewewe.png[/img]\n[img]http://img524.imageshack.us/img524/56/wewewewewewe.png[/img]\n[img]http://img831.imageshack.us/img831/1692/wewewewewewewe.png[/img]\n\n\n\n\n\nGreetz\n\niNK,LUSi,,MAGNET,CLASSiFiED,THC,LEGi0N,IMAGiNE,ViSiON,WBZ,FLAWL3SS,NOVA\nRapeseed,D2U,SAFC,goldadvance,MEMORY100,KaN1vE,Unevano,Pinnz,Wayne,Mr Hive\nand all P2P groups \nGreat Work Guys :D","torrent":{"xt":"urn:btih:1f0aa4d79df7cc1c68281fa27b158e9f68fd6cf3","amp;dn":"Wel.The.Rileys.2010.BDRip.XVID.AC3.HQ.Hive-CM8","amp;tr":["udp%3A%2F%2Ftracker.openbittorrent.com%3A80","udp%3A%2F%2Fopen.demonii.com%3A1337","udp%3A%2F%2Ftracker.coppersurfer.tk%3A6969","udp%3A%2F%2Fexodus.desync.com%3A6969"],"infoHash":"1f0aa4d79df7cc1c68281fa27b158e9f68fd6cf3","infoHashBuffer":{"type":"Buffer","data":[31,10,164,215,157,247,204,28,104,40,31,162,123,21,142,159,104,253,108,243]},"announce":[],"urlList":[]}}